<mxfile host="app.diagrams.net" modified="2024-03-14T08:40:08.790Z" agent="Mozilla/5.0 (Macintosh; Intel Mac OS X 10_15_7) AppleWebKit/537.36 (KHTML, like Gecko) Chrome/118.0.0.0 Safari/537.36" etag="qNTnrA5e7aLzWRFM_-Dw" version="24.0.6" type="github">
  <diagram name="第 1 页" id="d1vJS88AlJTQ6F2CTf-D">
    <mxGraphModel dx="2021" dy="1874" grid="1" gridSize="10" guides="1" tooltips="1" connect="1" arrows="1" fold="1" page="1" pageScale="1" pageWidth="827" pageHeight="1169" math="0" shadow="0">
      <root>
        <mxCell id="0" />
        <mxCell id="1" parent="0" />
        <mxCell id="NW1kVAeddkU9lpKH8ITA-2" value="Vue的优化" style="text;html=1;align=left;verticalAlign=top;whiteSpace=wrap;rounded=0;fontStyle=1" parent="1" vertex="1">
          <mxGeometry x="-10" y="-60" width="70" height="30" as="geometry" />
        </mxCell>
        <mxCell id="NW1kVAeddkU9lpKH8ITA-4" style="edgeStyle=orthogonalEdgeStyle;rounded=0;orthogonalLoop=1;jettySize=auto;html=1;exitX=1;exitY=0.5;exitDx=0;exitDy=0;entryX=0;entryY=0.5;entryDx=0;entryDy=0;" parent="1" source="NW1kVAeddkU9lpKH8ITA-3" target="NW1kVAeddkU9lpKH8ITA-5" edge="1">
          <mxGeometry relative="1" as="geometry">
            <mxPoint x="230" y="125" as="targetPoint" />
          </mxGeometry>
        </mxCell>
        <mxCell id="jncYMVPoAjVXqdRzoZYn-3" style="edgeStyle=orthogonalEdgeStyle;rounded=0;orthogonalLoop=1;jettySize=auto;html=1;exitX=0.5;exitY=1;exitDx=0;exitDy=0;entryX=0.5;entryY=0;entryDx=0;entryDy=0;" edge="1" parent="1" source="NW1kVAeddkU9lpKH8ITA-3" target="NW1kVAeddkU9lpKH8ITA-14">
          <mxGeometry relative="1" as="geometry" />
        </mxCell>
        <mxCell id="NW1kVAeddkU9lpKH8ITA-3" value="路由懒加载、异步组件" style="rounded=0;whiteSpace=wrap;html=1;" parent="1" vertex="1">
          <mxGeometry x="60" y="100" width="100" height="50" as="geometry" />
        </mxCell>
        <mxCell id="NW1kVAeddkU9lpKH8ITA-7" style="edgeStyle=orthogonalEdgeStyle;rounded=0;orthogonalLoop=1;jettySize=auto;html=1;exitX=1;exitY=0.5;exitDx=0;exitDy=0;entryX=0;entryY=0.5;entryDx=0;entryDy=0;" parent="1" source="NW1kVAeddkU9lpKH8ITA-5" target="NW1kVAeddkU9lpKH8ITA-9" edge="1">
          <mxGeometry relative="1" as="geometry">
            <mxPoint x="510" y="125" as="targetPoint" />
          </mxGeometry>
        </mxCell>
        <mxCell id="NW1kVAeddkU9lpKH8ITA-5" value="分包" style="rounded=0;whiteSpace=wrap;html=1;" parent="1" vertex="1">
          <mxGeometry x="240" y="100" width="100" height="50" as="geometry" />
        </mxCell>
        <mxCell id="NW1kVAeddkU9lpKH8ITA-6" value="打包" style="text;html=1;align=center;verticalAlign=middle;whiteSpace=wrap;rounded=0;" parent="1" vertex="1">
          <mxGeometry x="180" y="90" width="60" height="30" as="geometry" />
        </mxCell>
        <mxCell id="NW1kVAeddkU9lpKH8ITA-12" style="edgeStyle=orthogonalEdgeStyle;rounded=0;orthogonalLoop=1;jettySize=auto;html=1;exitX=1;exitY=0.5;exitDx=0;exitDy=0;entryX=0;entryY=0.5;entryDx=0;entryDy=0;" parent="1" source="NW1kVAeddkU9lpKH8ITA-9" target="NW1kVAeddkU9lpKH8ITA-11" edge="1">
          <mxGeometry relative="1" as="geometry" />
        </mxCell>
        <mxCell id="NW1kVAeddkU9lpKH8ITA-9" value="体积更小的包" style="rounded=0;whiteSpace=wrap;html=1;" parent="1" vertex="1">
          <mxGeometry x="440" y="100" width="100" height="50" as="geometry" />
        </mxCell>
        <mxCell id="NW1kVAeddkU9lpKH8ITA-11" value="按需加载" style="rounded=0;whiteSpace=wrap;html=1;" parent="1" vertex="1">
          <mxGeometry x="620" y="100" width="100" height="50" as="geometry" />
        </mxCell>
        <mxCell id="jncYMVPoAjVXqdRzoZYn-1" value="避免重复创建组件实例" style="rounded=0;whiteSpace=wrap;html=1;" vertex="1" parent="1">
          <mxGeometry x="240" y="230" width="100" height="50" as="geometry" />
        </mxCell>
        <mxCell id="jncYMVPoAjVXqdRzoZYn-8" style="edgeStyle=orthogonalEdgeStyle;rounded=0;orthogonalLoop=1;jettySize=auto;html=1;exitX=1;exitY=0.25;exitDx=0;exitDy=0;entryX=0;entryY=0.5;entryDx=0;entryDy=0;" edge="1" parent="1" source="jncYMVPoAjVXqdRzoZYn-5" target="jncYMVPoAjVXqdRzoZYn-1">
          <mxGeometry relative="1" as="geometry" />
        </mxCell>
        <mxCell id="jncYMVPoAjVXqdRzoZYn-9" value="" style="group" vertex="1" connectable="0" parent="1">
          <mxGeometry x="60" y="220" width="100" height="100" as="geometry" />
        </mxCell>
        <mxCell id="NW1kVAeddkU9lpKH8ITA-14" value="keep-alive" style="rounded=0;whiteSpace=wrap;html=1;" parent="jncYMVPoAjVXqdRzoZYn-9" vertex="1">
          <mxGeometry width="100" height="50" as="geometry" />
        </mxCell>
        <mxCell id="jncYMVPoAjVXqdRzoZYn-5" value="v-show" style="rounded=0;whiteSpace=wrap;html=1;" vertex="1" parent="jncYMVPoAjVXqdRzoZYn-9">
          <mxGeometry y="50" width="100" height="50" as="geometry" />
        </mxCell>
        <mxCell id="jncYMVPoAjVXqdRzoZYn-10" value="不同时使用v-for v-if" style="rounded=0;whiteSpace=wrap;html=1;" vertex="1" parent="1">
          <mxGeometry x="60" y="360" width="100" height="50" as="geometry" />
        </mxCell>
        <mxCell id="jncYMVPoAjVXqdRzoZYn-15" style="edgeStyle=orthogonalEdgeStyle;rounded=0;orthogonalLoop=1;jettySize=auto;html=1;exitX=1;exitY=0.5;exitDx=0;exitDy=0;entryX=0;entryY=0.5;entryDx=0;entryDy=0;" edge="1" parent="1" source="jncYMVPoAjVXqdRzoZYn-12" target="jncYMVPoAjVXqdRzoZYn-14">
          <mxGeometry relative="1" as="geometry" />
        </mxCell>
        <mxCell id="jncYMVPoAjVXqdRzoZYn-12" value="长列表渲染优化" style="rounded=0;whiteSpace=wrap;html=1;" vertex="1" parent="1">
          <mxGeometry x="60" y="559.5" width="100" height="50" as="geometry" />
        </mxCell>
        <mxCell id="jncYMVPoAjVXqdRzoZYn-13" value="v-once v-memo" style="rounded=0;whiteSpace=wrap;html=1;" vertex="1" parent="1">
          <mxGeometry x="60" y="460" width="100" height="50" as="geometry" />
        </mxCell>
        <mxCell id="jncYMVPoAjVXqdRzoZYn-14" value="虚拟滚动" style="rounded=0;whiteSpace=wrap;html=1;" vertex="1" parent="1">
          <mxGeometry x="240" y="560" width="100" height="50" as="geometry" />
        </mxCell>
        <mxCell id="jncYMVPoAjVXqdRzoZYn-16" value="事件销毁" style="rounded=0;whiteSpace=wrap;html=1;" vertex="1" parent="1">
          <mxGeometry x="60" y="650" width="100" height="50" as="geometry" />
        </mxCell>
        <mxCell id="jncYMVPoAjVXqdRzoZYn-19" style="edgeStyle=orthogonalEdgeStyle;rounded=0;orthogonalLoop=1;jettySize=auto;html=1;exitX=0.5;exitY=0;exitDx=0;exitDy=0;entryX=0.5;entryY=1;entryDx=0;entryDy=0;" edge="1" parent="1" source="jncYMVPoAjVXqdRzoZYn-18" target="NW1kVAeddkU9lpKH8ITA-11">
          <mxGeometry relative="1" as="geometry" />
        </mxCell>
        <mxCell id="jncYMVPoAjVXqdRzoZYn-18" value="第三方库按需加载" style="rounded=0;whiteSpace=wrap;html=1;" vertex="1" parent="1">
          <mxGeometry x="620" y="230" width="100" height="50" as="geometry" />
        </mxCell>
        <mxCell id="jncYMVPoAjVXqdRzoZYn-21" value="图片懒加载" style="rounded=0;whiteSpace=wrap;html=1;" vertex="1" parent="1">
          <mxGeometry x="60" y="10" width="100" height="50" as="geometry" />
        </mxCell>
        <mxCell id="jncYMVPoAjVXqdRzoZYn-26" style="edgeStyle=orthogonalEdgeStyle;rounded=0;orthogonalLoop=1;jettySize=auto;html=1;exitX=1;exitY=0.5;exitDx=0;exitDy=0;entryX=0;entryY=0.5;entryDx=0;entryDy=0;" edge="1" parent="1" source="jncYMVPoAjVXqdRzoZYn-23" target="jncYMVPoAjVXqdRzoZYn-25">
          <mxGeometry relative="1" as="geometry" />
        </mxCell>
        <mxCell id="jncYMVPoAjVXqdRzoZYn-23" value="子组件分割策略" style="rounded=0;whiteSpace=wrap;html=1;" vertex="1" parent="1">
          <mxGeometry x="60" y="760" width="100" height="50" as="geometry" />
        </mxCell>
        <mxCell id="jncYMVPoAjVXqdRzoZYn-28" style="edgeStyle=orthogonalEdgeStyle;rounded=0;orthogonalLoop=1;jettySize=auto;html=1;exitX=1;exitY=0.5;exitDx=0;exitDy=0;" edge="1" parent="1" source="jncYMVPoAjVXqdRzoZYn-24">
          <mxGeometry relative="1" as="geometry">
            <mxPoint x="600" y="785" as="targetPoint" />
          </mxGeometry>
        </mxCell>
        <mxCell id="jncYMVPoAjVXqdRzoZYn-24" value="无状态、不渲染组件不拆分" style="rounded=0;whiteSpace=wrap;html=1;" vertex="1" parent="1">
          <mxGeometry x="420" y="760" width="100" height="50" as="geometry" />
        </mxCell>
        <mxCell id="jncYMVPoAjVXqdRzoZYn-27" style="edgeStyle=orthogonalEdgeStyle;rounded=0;orthogonalLoop=1;jettySize=auto;html=1;exitX=1;exitY=0.5;exitDx=0;exitDy=0;entryX=0;entryY=0.5;entryDx=0;entryDy=0;" edge="1" parent="1" source="jncYMVPoAjVXqdRzoZYn-25" target="jncYMVPoAjVXqdRzoZYn-24">
          <mxGeometry relative="1" as="geometry" />
        </mxCell>
        <mxCell id="jncYMVPoAjVXqdRzoZYn-25" value="组件实例消耗大于纯DOM节点" style="rounded=0;whiteSpace=wrap;html=1;" vertex="1" parent="1">
          <mxGeometry x="240" y="760" width="100" height="50" as="geometry" />
        </mxCell>
        <mxCell id="jncYMVPoAjVXqdRzoZYn-29" value="有状态、重逻辑的组件拆分" style="rounded=0;whiteSpace=wrap;html=1;" vertex="1" parent="1">
          <mxGeometry x="600" y="760" width="100" height="50" as="geometry" />
        </mxCell>
      </root>
    </mxGraphModel>
  </diagram>
</mxfile>
